# Blender 3.6.12
# www.blender.org
mtllib grass.mtl
o Cube
v 0.500000 -0.500000 0.500000
v 0.500000 0.500000 0.500000
v 0.500000 -0.500000 -0.500000
v 0.500000 0.500000 -0.500000
v -0.500000 -0.500000 0.500000
v -0.500000 0.500000 0.500000
v -0.500000 -0.500000 -0.500000
v -0.500000 0.500000 -0.500000
vn -0.0000 -1.0000 -0.0000
vn -0.0000 -0.0000 -1.0000
vn -1.0000 -0.0000 -0.0000
vn -0.0000 1.0000 -0.0000
vn 1.0000 -0.0000 -0.0000
vn -0.0000 -0.0000 1.0000
vt 0.249051 0.662476
vt 0.004942 0.337525
vt 0.249051 0.337524
vt 0.999409 0.337524
vt 0.737270 0.662476
vt 0.737270 0.337524
vt 0.004942 0.662476
vt 0.249051 0.997244
vt 0.004942 0.997244
vt 0.493161 0.337524
vt 0.493161 0.662476
vt 0.004941 0.001119
vt 0.249051 0.001119
vt 0.999409 0.662476
s 0
usemtl Material
f 5/1/1 3/2/1 1/3/1
f 3/4/2 8/5/2 4/6/2
f 7/7/3 6/8/3 8/9/3
f 2/10/4 8/5/4 6/11/4
f 1/3/5 4/12/5 2/13/5
f 5/1/6 2/10/6 6/11/6
f 5/1/1 7/7/1 3/2/1
f 3/4/2 7/14/2 8/5/2
f 7/7/3 5/1/3 6/8/3
f 2/10/4 4/6/4 8/5/4
f 1/3/5 3/2/5 4/12/5
f 5/1/6 1/3/6 2/10/6
