# Blender 3.6.12
# www.blender.org
mtllib grass.mtl
o Cube
v -0.500000 0.500000 0.500000
v -0.500000 -0.500000 0.500000
v -0.500000 0.500000 -0.500000
v -0.500000 -0.500000 -0.500000
v 0.500000 0.500000 0.500000
v 0.500000 -0.500000 0.500000
v 0.500000 0.500000 -0.500000
v 0.500000 -0.500000 -0.500000
vn -0.0000 1.0000 -0.0000
vn -0.0000 -0.0000 -1.0000
vn 1.0000 -0.0000 -0.0000
vn -0.0000 -1.0000 -0.0000
vn -1.0000 -0.0000 -0.0000
vn -0.0000 -0.0000 1.0000
vt 0.502500 0.995000
vt 0.997500 0.005000
vt 0.997500 0.995000
vt 0.497500 0.995000
vt 0.002500 0.005000
vt 0.497500 0.005000
vt 0.002500 0.995000
vt 0.502500 0.005000
s 0
usemtl Material
f 5/1/1 3/2/1 1/3/1
f 3/4/2 8/5/2 4/6/2
f 7/7/3 6/6/3 8/5/3
f 2/3/4 8/8/4 6/1/4
f 1/4/5 4/5/5 2/6/5
f 5/7/6 2/6/6 6/5/6
f 5/1/1 7/8/1 3/2/1
f 3/4/2 7/7/2 8/5/2
f 7/7/3 5/4/3 6/6/3
f 2/3/4 4/2/4 8/8/4
f 1/4/5 3/7/5 4/5/5
f 5/7/6 1/4/6 2/6/6
