# Blender 3.6.12
# www.blender.org
mtllib seam.mtl
o Cube
v -0.500000 0.500000 0.500000
v -0.500000 -0.500000 0.500000
v -0.500000 0.500000 -0.500000
v -0.500000 -0.500000 -0.500000
v 0.500000 0.500000 0.500000
v 0.500000 -0.500000 0.500000
v 0.500000 0.500000 -0.500000
v 0.500000 -0.500000 -0.500000
vn -0.0000 1.0000 -0.0000
vn -0.0000 -0.0000 -1.0000
vn 1.0000 -0.0000 -0.0000
vn -0.0000 -1.0000 -0.0000
vn -1.0000 -0.0000 -0.0000
vn -0.0000 -0.0000 1.0000
vt 1.000070 0.000470
vt 0.500670 1.004331
vt 0.500670 0.000470
vt 0.499405 0.003000
vt 1.001335 1.001801
vt 0.499405 1.001801
vt 1.000070 1.004331
vt 0.495610 1.004331
vt -0.003791 0.000470
vt 0.495610 0.000470
vt 0.499405 0.003000
vt 1.001335 1.001801
vt 0.500670 0.000470
vt 1.001335 0.003000
vt 1.000070 0.000470
vt -0.003791 1.004331
vt 1.001335 0.003000
s 0
usemtl Material
f 5/1/1 3/2/1 1/3/1
f 3/4/2 8/5/2 4/6/2
f 7/3/3 6/7/3 8/2/3
f 2/8/4 8/9/4 6/10/4
f 1/11/5 4/12/5 2/6/5
f 5/13/6 2/7/6 6/2/6
f 5/1/1 7/7/1 3/2/1
f 3/4/2 7/14/2 8/5/2
f 7/3/3 5/15/3 6/7/3
f 2/8/4 4/16/4 8/9/4
f 1/11/5 3/17/5 4/12/5
f 5/13/6 1/15/6 2/7/6
